<?xml version="1.0" encoding="UTF-8" standalone="no" ?>
<!DOCTYPE svg PUBLIC "-//W3C//DTD SVG 1.1//EN" "http://www.w3.org/Graphics/SVG/1.1/DTD/svg11.dtd">
<svg xmlns="http://www.w3.org/2000/svg" xmlns:xlink="http://www.w3.org/1999/xlink" version="1.1" width="1080" height="1080" viewBox="0 0 1080 1080" xml:space="preserve">
<desc>Created with Fabric.js 5.2.4</desc>
<defs>
</defs>
<g transform="matrix(1 0 0 1 540 540)" id="ad03a42c-ca48-4392-9532-1fd2081e0e6c"  >
<rect style="stroke: none; stroke-width: 1; stroke-dasharray: none; stroke-linecap: butt; stroke-dashoffset: 0; stroke-linejoin: miter; stroke-miterlimit: 4; fill: rgb(255,255,255); fill-rule: nonzero; opacity: 1; visibility: hidden;" vector-effect="non-scaling-stroke"  x="-540" y="-540" rx="0" ry="0" width="1080" height="1080" />
</g>
<g transform="matrix(1 0 0 1 540 540)" id="4e9fafab-9dfb-40cb-bfc2-82ee853266fe"  >
</g>
<g transform="matrix(1 0 0 1 540 540)"  >
<g style="" vector-effect="non-scaling-stroke"   >
		<g transform="matrix(1.14 0 0 1.14 0 0)"  >
<path style="stroke: none; stroke-width: 1; stroke-dasharray: none; stroke-linecap: butt; stroke-dashoffset: 0; stroke-linejoin: miter; stroke-miterlimit: 4; fill: rgb(255,255,255); fill-rule: nonzero; opacity: 1;" vector-effect="non-scaling-stroke"  transform=" translate(-223.86, -223.86)" d="M 197.621 447.725 C 175.244 447.711 154.197 437.098 140.881 419.115 C 119.94800000000001 447.148 80.25399999999999 452.904 52.221000000000004 431.972 C 30.234000000000005 415.554 21.317000000000004 386.847 30.133000000000003 360.86199999999997 L 30.207000000000004 360.751 L 35.043000000000006 346.907 C 55.50000000000001 288.947 65.93700000000001 227.926 65.905 166.46099999999998 C 64.535 75.90799999999999 136.833 1.3889999999999816 227.387 0.018999999999977035 C 317.94100000000003 -1.3510000000000275 392.46000000000004 70.94799999999998 393.83000000000004 161.50199999999998 C 393.855 163.14299999999997 393.855 164.784 393.831 166.42499999999998 L 393.831 185.843 C 393.836 226.69299999999998 398.15500000000003 267.428 406.71500000000003 307.371 C 413.28600000000006 338.085 419.82000000000005 371.162 419.894 371.49399999999997 C 419.96799999999996 371.82599999999996 419.931 371.60499999999996 419.931 371.642 C 426.16999999999996 406.01099999999997 403.282 439.051 368.913 445.253 C 351.72700000000003 448.34299999999996 334.027 444.231 319.962 433.883 C 296.967 444.577 269.791 440.335 251.14999999999998 423.14 C 237.75199999999998 438.756 218.19799999999998 447.73699999999997 197.62099999999998 447.72499999999997 z M 140.06900000000002 385.52200000000005 L 141.39800000000002 385.52200000000005 C 146.12300000000002 385.52600000000007 150.32800000000003 388.51700000000005 151.88200000000003 392.97900000000004 C 160.61000000000004 418.24300000000005 188.16600000000003 431.648 213.43000000000004 422.92 C 225.05300000000003 418.904 234.71200000000005 410.615 240.44400000000005 399.735 C 243.27200000000005 394.33500000000004 249.94300000000004 392.25 255.34300000000005 395.07800000000003 C 257.05000000000007 395.97200000000004 258.494 397.29800000000006 259.52900000000005 398.92300000000006 C 271.5350000000001 417.7200000000001 296.50700000000006 423.22600000000006 315.30400000000003 411.21900000000005 C 315.30600000000004 411.2180000000001 315.307 411.21700000000004 315.309 411.21600000000007 C 319.62100000000004 408.44500000000005 325.271 408.99500000000006 328.968 412.5450000000001 C 338.51800000000003 421.75000000000006 351.90500000000003 425.8140000000001 364.961 423.4720000000001 C 387.30600000000004 419.4290000000001 402.15700000000004 398.0540000000001 398.149 375.7030000000001 C 397.78 373.7830000000001 391.43 341.7770000000001 385.044 312.0230000000001 C 376.176 270.54800000000006 371.697 228.25600000000009 371.68 185.84400000000008 L 371.68 166.42600000000007 C 372.944 88.10500000000008 310.477 23.58800000000008 232.156 22.32400000000007 C 153.83500000000004 21.06000000000006 89.31800000000001 83.52600000000007 88.054 161.84700000000007 C 88.029 163.37300000000008 88.029 164.89900000000006 88.054 166.42400000000006 C 88.08 230.40200000000007 77.22 293.91800000000006 55.937000000000005 354.25300000000004 L 51.101000000000006 368.023 C 43.854000000000006 389.562 55.416000000000004 412.901 76.94200000000001 420.185 C 98.427 427.457 121.869 415.866 129.14100000000002 394.344 L 129.58400000000003 393.052 C 131.09400000000002 388.547 135.31800000000004 385.514 140.06900000000002 385.52200000000005 z" stroke-linecap="round" />
</g>
		<g transform="matrix(1.14 0 0 1.14 -53.12 -76.17)"  >
<path style="stroke: none; stroke-width: 1; stroke-dasharray: none; stroke-linecap: butt; stroke-dashoffset: 0; stroke-linejoin: miter; stroke-miterlimit: 4; fill: rgb(255,255,255); fill-rule: nonzero; opacity: 1;" vector-effect="non-scaling-stroke"  transform=" translate(-177.41, -157.26)" d="M 198.618 137.815 C 190.504 137.844 183.902 131.29 183.873 123.175 C 183.852 117.437 187.17399999999998 112.212 192.379 109.79599999999999 C 190.64499999999998 108.85499999999999 188.778 108.18299999999999 186.84199999999998 107.803 C 170.488 104.702 152.95299999999997 124.268 147.748 151.58499999999998 C 142.54299999999998 178.903 151.54999999999998 203.563 167.941 206.70099999999996 C 184.33200000000002 209.83899999999994 201.83 190.23599999999996 207.072 162.95499999999996 C 208.992 152.91399999999996 208.992 143.27899999999997 207.404 134.89899999999994 C 204.861 136.78299999999993 201.783 137.80399999999995 198.618 137.81499999999994 z" stroke-linecap="round" />
</g>
		<g transform="matrix(1.14 0 0 1.14 78.21 -76.17)"  >
<path style="stroke: none; stroke-width: 1; stroke-dasharray: none; stroke-linecap: butt; stroke-dashoffset: 0; stroke-linejoin: miter; stroke-miterlimit: 4; fill: rgb(255,255,255); fill-rule: nonzero; opacity: 1;" vector-effect="non-scaling-stroke"  transform=" translate(-292.26, -157.25)" d="M 321.918 151.585 C 320.803 145.616 319.007 139.794 316.565 134.234 C 310.439 139.555 301.159 138.90300000000002 295.838 132.77700000000002 C 293.512 130.09900000000002 292.233 126.67000000000002 292.238 123.12200000000001 C 292.228 118.40800000000002 294.497 113.98000000000002 298.329 111.23500000000001 C 293.308 108.13400000000001 287.992 106.805 282.78700000000003 107.80200000000002 C 266.396 110.94000000000003 257.35200000000003 135.63700000000003 262.59400000000005 162.955 C 267.83600000000007 190.273 285.33400000000006 209.83800000000002 301.725 206.70100000000002 C 318.115 203.562 327.16 178.90200000000002 321.918 151.58500000000004 z" stroke-linecap="round" />
</g>
		<g transform="matrix(1.14 0 0 1.14 12.46 5.15)"  >
<ellipse style="stroke: none; stroke-width: 1; stroke-dasharray: none; stroke-linecap: butt; stroke-dashoffset: 0; stroke-linejoin: miter; stroke-miterlimit: 4; fill: rgb(255,255,255); fill-rule: nonzero; opacity: 1;" vector-effect="non-scaling-stroke"  cx="0" cy="0" rx="16.981" ry="24.734" />
</g>
</g>
</g>
</svg>