<svg id="Capa_1" enable-background="new 0 0 447.725 447.725" height="512" viewBox="0 0 447.725 447.725" width="512" xmlns="http://www.w3.org/2000/svg"><g><path d="m197.621 447.725c-22.377-.014-43.424-10.627-56.74-28.61-20.933 28.033-60.627 33.789-88.66 12.857-21.987-16.418-30.904-45.125-22.088-71.11l.074-.111 4.836-13.844c20.457-57.96 30.894-118.981 30.862-180.446-1.37-90.553 70.928-165.072 161.482-166.442s165.073 70.929 166.443 161.483c.025 1.641.025 3.282.001 4.923v19.418c.005 40.85 4.324 81.585 12.884 121.528 6.571 30.714 13.105 63.791 13.179 64.123s.037.111.037.148c6.239 34.369-16.649 67.409-51.018 73.611-17.186 3.09-34.886-1.022-48.951-11.37-22.995 10.694-50.171 6.452-68.812-10.743-13.398 15.616-32.952 24.597-53.529 24.585zm-57.552-62.203h1.329c4.725.004 8.93 2.995 10.484 7.457 8.728 25.264 36.284 38.669 61.548 29.941 11.623-4.016 21.282-12.305 27.014-23.185 2.828-5.4 9.499-7.485 14.899-4.657 1.707.894 3.151 2.22 4.186 3.845 12.006 18.797 36.978 24.303 55.775 12.296.002-.001.003-.002.005-.003 4.312-2.771 9.962-2.221 13.659 1.329 9.55 9.205 22.937 13.269 35.993 10.927 22.345-4.043 37.196-25.418 33.188-47.769-.369-1.92-6.719-33.926-13.105-63.68-8.868-41.475-13.347-83.767-13.364-126.179v-19.418c1.264-78.321-61.203-142.838-139.524-144.102s-142.838 61.202-144.102 139.523c-.025 1.526-.025 3.052 0 4.577.026 63.978-10.834 127.494-32.117 187.829l-4.836 13.77c-7.247 21.539 4.315 44.878 25.841 52.162 21.485 7.272 44.927-4.319 52.199-25.841l.443-1.292c1.51-4.505 5.734-7.538 10.485-7.53z"/><path d="m198.618 137.815c-8.114.029-14.716-6.525-14.745-14.64-.021-5.738 3.301-10.963 8.506-13.379-1.734-.941-3.601-1.613-5.537-1.993-16.354-3.101-33.889 16.465-39.094 43.782-5.205 27.318 3.802 51.978 20.193 55.116s33.889-16.465 39.131-43.746c1.92-10.041 1.92-19.676.332-28.056-2.543 1.884-5.621 2.905-8.786 2.916z"/><path d="m321.918 151.585c-1.115-5.969-2.911-11.791-5.353-17.351-6.126 5.321-15.406 4.669-20.727-1.457-2.326-2.678-3.605-6.107-3.6-9.655-.01-4.714 2.259-9.142 6.091-11.887-5.021-3.101-10.337-4.43-15.542-3.433-16.391 3.138-25.435 27.835-20.193 55.153s22.74 46.883 39.131 43.746c16.39-3.139 25.435-27.799 20.193-55.116z"/><ellipse cx="234.759" cy="228.37" rx="16.981" ry="24.734"/></g></svg>